<svg xmlns="http://www.w3.org/2000/svg" width="24" height="24" fill="none"><path fill="#00240F" d="M7.488 18.451a2.333 2.333 0 1 0 4.665 0 2.333 2.333 0 0 0-4.665 0Zm3.225 0a.893.893 0 1 1-1.785 0 .893.893 0 0 1 1.785 0ZM16.627 16.118a2.333 2.333 0 1 0 0 4.667 2.333 2.333 0 0 0 0-4.667Zm0 3.226a.893.893 0 1 1 0-1.782.893.893 0 0 1 0 1.78v.002ZM20.794 8.342a.722.722 0 0 0-.701-.88H7.997l-.219-1.09a3.816 3.816 0 0 0-3.103-3.031l-.64-.113a.72.72 0 1 0-.24 1.418l.64.113a2.386 2.386 0 0 1 1.94 1.894l1.267 6.34a3.6 3.6 0 0 0 3.523 2.895h5.023a3.583 3.583 0 0 0 3.506-2.791l1.1-4.755Zm-2.501 4.43a2.16 2.16 0 0 1-2.105 1.68h-5.023a2.16 2.16 0 0 1-2.12-1.732l-.76-3.82h10.9l-.892 3.873Z"/><circle cx="19.2" cy="8" r="3.2" fill="#EC0000"/></svg>