<svg xmlns="http://www.w3.org/2000/svg" width="157" height="56" fill="none"><path fill="#00240F" d="M53.006 20.506c2.076 0 3.684.444 4.824 1.333 1.155.89 1.733 2.223 1.733 4 0 1.86-.578 3.258-1.733 4.196-1.155.92-2.693 1.381-4.613 1.381H51.32v5.844h-3.091V20.506h4.777Zm-.023 8.51c1.108 0 1.943-.234 2.505-.703.562-.485.843-1.31.843-2.473 0-1.988-1.116-2.982-3.349-2.982H51.32v6.158h1.663ZM64.968 24.434V37.26h-2.997V24.434h2.997Zm-1.522-6.498c.562 0 1.015.185 1.358.557.36.356.539.8.539 1.334 0 .533-.18.978-.539 1.333-.343.356-.796.534-1.358.534-.546 0-1-.178-1.358-.534-.344-.355-.515-.8-.515-1.333 0-.534.171-.978.515-1.334.359-.372.812-.557 1.358-.557ZM76.635 24.434v2.23l-5.995 8.171h6.113l-.305 2.425h-9.25v-2.23l6.019-8.172h-5.504v-2.424h8.922ZM87.155 24.434v2.23l-5.995 8.171h6.112l-.304 2.425h-9.25v-2.23l6.018-8.172h-5.503v-2.424h8.922ZM98.432 33.865c0 .502.07.873.211 1.116.156.226.398.404.726.533l-.632 2.061c-.703-.065-1.28-.242-1.733-.533-.437-.291-.773-.736-1.007-1.334-.421.647-.952 1.132-1.592 1.455-.625.307-1.327.46-2.108.46-1.233 0-2.21-.363-2.927-1.09-.718-.728-1.077-1.682-1.077-2.862 0-1.39.483-2.448 1.451-3.176.984-.743 2.381-1.115 4.192-1.115h1.546v-.728c0-.824-.188-1.398-.562-1.721-.36-.34-.945-.51-1.757-.51-.905 0-1.998.227-3.278.68l-.703-2.11c1.546-.614 3.045-.921 4.497-.921 3.169 0 4.753 1.47 4.753 4.413v5.382Zm-5.339 1.504c1.015 0 1.811-.526 2.389-1.576v-2.595H94.24c-1.936 0-2.904.744-2.904 2.23 0 .615.148 1.092.445 1.431.296.34.734.51 1.311.51ZM118.405 20.506l-.327 2.546h-4.216V37.26h-3.114V23.052h-4.356v-2.546h12.013ZM123.33 24.434V37.26h-2.998V24.434h2.998Zm-1.523-6.498c.562 0 1.015.185 1.359.557.359.356.538.8.538 1.334 0 .533-.179.978-.538 1.333-.344.356-.797.534-1.359.534-.546 0-.999-.178-1.358-.534-.343-.355-.515-.8-.515-1.333 0-.534.172-.978.515-1.334.359-.372.812-.557 1.358-.557ZM140.078 24.07c1 0 1.796.355 2.389 1.067.593.695.89 1.64.89 2.837v9.286h-2.998v-8.802c0-1.373-.452-2.06-1.358-2.06-.484 0-.905.161-1.264.484-.344.308-.703.792-1.078 1.455v8.923h-2.997v-8.802c0-1.373-.453-2.06-1.358-2.06-.5 0-.929.161-1.288.484-.344.308-.703.792-1.077 1.455v8.923h-2.998V24.434h2.6l.234 1.673c.936-1.358 2.131-2.037 3.583-2.037.718 0 1.334.194 1.85.582.53.371.913.897 1.147 1.576.5-.695 1.046-1.229 1.639-1.6.609-.372 1.304-.558 2.084-.558ZM157 30.544c0 .161-.023.581-.07 1.26h-7.775c.094 1.245.406 2.134.937 2.668.531.533 1.233.8 2.108.8.546 0 1.061-.09 1.545-.267.484-.194.999-.485 1.546-.873l1.241 1.77c-1.374 1.148-2.904 1.721-4.59 1.721-1.889 0-3.349-.597-4.379-1.794-1.015-1.196-1.522-2.828-1.522-4.897 0-1.31.218-2.482.656-3.516.437-1.05 1.069-1.867 1.896-2.449.828-.598 1.811-.897 2.951-.897 1.733 0 3.076.574 4.028 1.721.952 1.132 1.428 2.716 1.428 4.753Zm-2.974-.898c0-2.246-.804-3.37-2.412-3.37-.733 0-1.311.283-1.733.849-.406.55-.648 1.439-.726 2.667h4.871v-.146Z"/><path fill="#EC0000" d="M42.154 40.744 29.414 28l12.74-12.744a.782.782 0 0 0 0-1.106A19.58 19.58 0 0 0 8.726 28a19.59 19.59 0 0 0 12.088 18.096 19.576 19.576 0 0 0 21.34-4.246.782.782 0 0 0 0-1.106Zm-8.325-6.115h-1.311a.781.781 0 1 0 0 1.564h1.941a.779.779 0 0 0 .623-.31l2.939 2.939a9.955 9.955 0 0 1-.773.238 7.09 7.09 0 0 0-1.35.479 3.316 3.316 0 0 0-5.81 2.149 3.377 3.377 0 0 0-.236.017c-.597.067-1.145.3-1.675.523l-.17.072c-.488.204-.958.383-1.349.34-.428-.048-.892-.383-1.385-.736-.468-.337-.952-.684-1.521-.883-.559-.196-1.146-.223-1.714-.25-.613-.03-1.19-.057-1.568-.294-.352-.223-.623-.72-.91-1.246-.278-.513-.566-1.043-1.002-1.479-.436-.436-.966-.724-1.479-1.003-.526-.287-1.023-.557-1.245-.91-.237-.377-.264-.956-.294-1.568-.027-.568-.055-1.156-.25-1.714-.199-.57-.546-1.054-.883-1.522-.354-.492-.687-.957-.735-1.386-.044-.39.135-.86.34-1.348l.072-.172c.224-.53.455-1.078.522-1.675.066-.593-.038-1.176-.139-1.74-.107-.6-.209-1.167-.064-1.582.14-.401.568-.779 1.02-1.178.434-.383.883-.778 1.207-1.293.312-.496.469-1.06.621-1.605.166-.593.322-1.153.642-1.474.321-.32.881-.477 1.474-.642.545-.152 1.108-.31 1.604-.622.515-.324.91-.772 1.293-1.206.4-.453.777-.88 1.178-1.021.415-.145.982-.043 1.582.064.563.1 1.146.205 1.74.139.596-.067 1.144-.299 1.674-.523l.171-.072c.487-.204.957-.383 1.348-.339.428.048.893.382 1.385.736.468.336.952.684 1.522.883.558.195 1.145.223 1.714.25.307.008.613.034.917.076-.757 1.337-.724 3.027.107 4.293l-7.847 7.849a.782.782 0 0 0 0 1.106l6.074 6.076Zm.522 6.259c-.4.453-.777.88-1.178 1.02-.399.14-.939.051-1.513-.051a1.748 1.748 0 0 1 3.017-1.332c-.11.12-.219.242-.326.363Zm2.394-22.434a2.584 2.584 0 0 1 .017-2.206c.098.164.194.34.292.52.158.291.32.587.51.868l-.819.818Zm-8.437 27.569a18.014 18.014 0 0 1-14.872-7.848A18.024 18.024 0 0 1 32.88 10.567a18.017 18.017 0 0 1 7.604 4.148l-1.787 1.787c-.09-.152-.179-.315-.27-.48-.351-.649-.75-1.383-1.449-1.823-.725-.456-1.576-.497-2.326-.532-.478-.023-.929-.044-1.273-.165-.356-.124-.73-.392-1.124-.676-.605-.435-1.29-.927-2.124-1.02-.762-.086-1.468.176-2.125.45l-.177.075c-.446.189-.869.367-1.24.409-.367.04-.815-.04-1.29-.124-.736-.132-1.57-.281-2.372-.001-.788.275-1.345.906-1.836 1.462-.324.367-.63.714-.953.918-.303.19-.734.311-1.191.439-.726.202-1.549.432-2.16 1.043-.61.61-.84 1.433-1.042 2.16-.128.456-.248.888-.44 1.191-.203.324-.55.63-.916.954-.557.49-1.188 1.047-1.463 1.835-.28.802-.13 1.637.002 2.373.085.475.165.923.124 1.29-.042.372-.22.794-.409 1.24l-.075.178c-.275.658-.536 1.363-.45 2.126.093.834.585 1.52 1.02 2.124.283.395.552.769.676 1.125.12.344.141.795.164 1.273.036.75.076 1.602.533 2.327.44.699 1.174 1.098 1.821 1.45.434.236.844.46 1.12.736.276.276.5.686.735 1.12.264.485.554 1.018.976 1.44.143.145.302.273.474.382.725.456 1.576.497 2.326.532.478.023.93.045 1.273.165.356.124.73.393 1.125.677.604.434 1.289.926 2.123 1.02.763.086 1.468-.176 2.125-.451l.177-.075c.447-.188.869-.367 1.24-.409.367-.04.816.04 1.29.124.737.132 1.57.282 2.373.002.788-.276 1.344-.907 1.835-1.463.324-.367.63-.714.953-.917.303-.191.735-.312 1.192-.44.497-.138 1.04-.29 1.528-.568l1.287 1.287a17.885 17.885 0 0 1-12.176 4.738Z"/><path fill="#05A84B" d="M27.015 18.528a3.135 3.135 0 1 0-4.434 4.432 3.135 3.135 0 0 0 4.434-4.432Zm-3.327 3.328a1.571 1.571 0 1 1 2.222-2.222 1.571 1.571 0 0 1-2.222 2.222ZM20.735 28.53a2.221 2.221 0 1 0-2.421 3.625 2.221 2.221 0 0 0 2.421-3.625Zm-2.13 2.132a.792.792 0 1 1 1.119-1.119.792.792 0 0 1-1.12 1.119ZM25.676 39.443a1.998 1.998 0 1 0 2.827-2.825 1.998 1.998 0 0 0-2.827 2.825Zm1.917-1.917a.711.711 0 1 1-1.006 1.005.711.711 0 0 1 1.006-1.005Z"/><path fill="#EC0000" d="M24.875 31.596a.782.782 0 1 0 1.564 0v-1.942a.782.782 0 1 0-1.564 0v1.942ZM29.688 18.936a.783.783 0 0 0 1.564 0v-1.942a.783.783 0 0 0-1.564 0v1.942ZM18.802 23.072a.783.783 0 0 0-1.564 0v1.942a.782.782 0 1 0 1.564 0v-1.942ZM22.232 35.744a.782.782 0 1 0-1.564 0v1.942a.782.782 0 1 0 1.564 0v-1.942Z"/></svg>